# File created by Blade
# Date/Time:  Wed Jan 21 14:28:11 2015
# Frame Rate: 120.000 fps
#------------------------------------------------------
:FULLY-SPECIFIED
:DEGREES
110
root 18.816256 35.456077 -21.024997 -173.617202 -1.442664 -178.351798
Spine -13.421852 0.883492 1.256090
Head 7.218972 -1.419974 0.156714
LeftShoulder -19.321111 -10.653140 1.413279
LeftArm -43.408600 12.421853 -92.281117
LeftForeArm 6.377350 -0.000000 7.107066
LeftHand -6.005716 0.000000 -21.509858
LeftHandThumb1 -26.253704 0.000000 33.147579
RightShoulder -19.027395 -22.588723 8.087263
RightArm -6.638271 -13.571558 81.084054
RightForeArm -34.384514 -0.000000 13.929408
RightHand -2.046678 0.000000 25.485936
RightHandThumb1 -24.326973 -0.000000 -32.862282
LeftUpLeg 1.344800 9.348076 2.763553
LeftLeg -5.953493 -0.000000 0.000000
LeftFoot -20.499903 27.846452 -11.110175
LeftToeBase 27.914140 -0.000000 -0.000000
RightUpLeg -0.888119 -12.028886 -0.063149
RightLeg -2.095457 -0.000000 0.000000
RightFoot -20.347304 -21.109014 15.624555
RightToeBase 25.765278 -0.000000 -0.000000
111
root 18.817012 35.455110 -21.033220 -173.679377 -1.445087 -178.346236
Spine -13.359078 0.956270 1.233741
Head 7.212065 -1.531605 0.158103
LeftShoulder -19.288807 -10.363081 1.345874
LeftArm -43.516427 12.601168 -92.974970
LeftForeArm 5.717859 -0.000000 6.880859
LeftHand -6.028997 -0.000000 -22.022119
LeftHandThumb1 -26.253704 0.000000 33.147579
RightShoulder -19.101900 -22.831494 8.221123
RightArm -6.690179 -14.160634 81.650157
RightForeArm -33.892165 -0.000000 13.686843
RightHand -2.050364 -0.000000 26.000055
RightHandThumb1 -24.326973 -0.000000 -32.862282
LeftUpLeg 1.413695 9.325501 2.785783
LeftLeg -5.936879 -0.000000 0.000000
LeftFoot -20.519535 27.897878 -10.996077
LeftToeBase 28.078268 -0.000000 -0.000000
RightUpLeg -0.809185 -12.018258 -0.072033
RightLeg -2.099127 -0.000000 0.000000
RightFoot -20.370526 -21.124191 15.580799
RightToeBase 25.916411 -0.000000 -0.000000
112
root 18.816888 35.454684 -21.040791 -173.734977 -1.453775 -178.354077
Spine -13.300373 1.003597 1.192144
Head 7.204901 -1.616090 0.183226
LeftShoulder -19.250171 -10.098487 1.288592
LeftArm -43.617529 12.661544 -93.489978
LeftForeArm 5.157292 -0.000000 6.713003
LeftHand -6.190076 0.000000 -22.610497
LeftHandThumb1 -26.253704 0.000000 33.147579
RightShoulder -19.112229 -22.971990 8.342780
RightArm -6.886863 -14.581856 82.154658
RightForeArm -33.405427 -0.000000 13.559115
RightHand -2.051545 0.000000 26.547560
RightHandThumb1 -24.326973 -0.000000 -32.862282
LeftUpLeg 1.476627 9.294715 2.788064
LeftLeg -5.927067 -0.000000 0.000000
LeftFoot -20.539299 27.887492 -11.112399
LeftToeBase 27.914499 -0.000000 -0.000000
RightUpLeg -0.738251 -12.028262 -0.094201
RightLeg -2.098434 -0.000000 0.000000
RightFoot -20.377756 -21.119054 15.565548
RightToeBase 25.911220 -0.000000 -0.000000
113
root 18.817461 35.454264 -21.047901 -173.793190 -1.483758 -178.354914
Spine -13.239055 1.027580 1.173576
Head 7.203170 -1.671123 0.177234
LeftShoulder -19.196796 -9.782412 1.208765
LeftArm -43.631277 12.721200 -93.938957
LeftForeArm 4.675658 0.000000 6.550702
LeftHand -6.265051 0.000000 -23.131938
LeftHandThumb1 -26.253704 0.000000 33.147579
RightShoulder -19.178671 -23.288748 8.476582
RightArm -6.795252 -15.082415 82.606679
RightForeArm -32.840470 -0.000000 13.309535
RightHand -1.981216 -0.000000 27.157158
RightHandThumb1 -24.326973 -0.000000 -32.862282
LeftUpLeg 1.542524 9.245589 2.803971
LeftLeg -5.927398 -0.000000 0.000000
LeftFoot -20.575191 27.928281 -11.055416
LeftToeBase 28.142004 -0.000000 -0.000000
RightUpLeg -0.660916 -12.051052 -0.108567
RightLeg -2.101193 -0.000000 0.000000
RightFoot -20.398935 -21.110746 15.588355
RightToeBase 25.890509 -0.000000 -0.000000
114
root 18.816509 35.454079 -21.053671 -173.849008 -1.525718 -178.361507
Spine -13.170410 1.017877 1.163411
Head 7.185449 -1.707736 0.159564
LeftShoulder -19.149473 -9.469298 1.115203
LeftArm -43.632975 12.917531 -94.441833
LeftForeArm 4.189196 -0.000000 6.422200
LeftHand -6.341802 -0.000000 -23.662995
LeftHandThumb1 -26.253704 0.000000 33.147579
RightShoulder -19.201271 -23.620887 8.620435
RightArm -6.667559 -15.636434 82.999936
RightForeArm -32.199393 -0.000000 13.095416
RightHand -2.128704 -0.000000 27.690240
RightHandThumb1 -24.326973 -0.000000 -32.862282
LeftUpLeg 1.595963 9.202964 2.807543
LeftLeg -5.915823 -0.000000 0.000000
LeftFoot -20.576380 27.901239 -11.153448
LeftToeBase 27.914283 -0.000000 -0.000000
RightUpLeg -0.590134 -12.085222 -0.127880
RightLeg -2.097630 -0.000000 0.000000
RightFoot -20.406881 -21.115003 15.575473
RightToeBase 25.978030 -0.000000 -0.000000
115
root 18.813800 35.453641 -21.062385 -173.910807 -1.548230 -178.367645
Spine -13.100967 1.032183 1.154099
Head 7.168912 -1.747851 0.137539
LeftShoulder -19.074642 -9.165930 1.024097
LeftArm -43.610060 13.062967 -94.864795
LeftForeArm 3.665079 -0.000000 6.280740
LeftHand -6.407598 -0.000000 -24.334141
LeftHandThumb1 -26.253704 0.000000 33.147579
RightShoulder -19.207971 -23.882727 8.738811
RightArm -6.607807 -16.189395 83.337057
RightForeArm -31.556266 -0.000000 12.868217
RightHand -2.013378 -0.000000 28.159206
RightHandThumb1 -24.326973 -0.000000 -32.862282
LeftUpLeg 1.677904 9.207842 2.810005
LeftLeg -5.933695 -0.000000 0.000000
LeftFoot -20.566643 27.868815 -11.166237
LeftToeBase 27.858924 -0.000000 -0.000000
RightUpLeg -0.503631 -12.094536 -0.153702
RightLeg -2.106720 -0.000000 0.000000
RightFoot -20.415927 -21.111721 15.598089
RightToeBase 25.873159 -0.000000 -0.000000
116
root 18.813541 35.453583 -21.066725 -173.957000 -1.606427 -178.356596
Spine -13.037721 1.000087 1.175479
Head 7.146669 -1.746898 0.105841
LeftShoulder -18.993015 -8.880708 0.925395
LeftArm -43.613433 13.367336 -95.370666
LeftForeArm 3.176468 0.000000 6.248707
LeftHand -6.536171 -0.000000 -24.866782
LeftHandThumb1 -26.253704 0.000000 33.147579
RightShoulder -19.184023 -24.125920 8.857670
RightArm -6.544678 -16.847843 83.666940
RightForeArm -30.853794 -0.000000 12.734050
RightHand -2.357179 -0.000000 28.789267
RightHandThumb1 -24.326973 -0.000000 -32.862282
LeftUpLeg 1.719658 9.168962 2.834739
LeftLeg -5.930603 -0.000000 0.000000
LeftFoot -20.559487 27.895351 -11.030154
LeftToeBase 28.107543 -0.000000 -0.000000
RightUpLeg -0.445054 -12.118394 -0.152759
RightLeg -2.095748 -0.000000 0.000000
RightFoot -20.414724 -21.073013 15.795834
RightToeBase 25.542817 -0.000000 -0.000000
117
root 18.812477 35.453834 -21.069338 -174.003500 -1.683317 -178.377365
Spine -12.962685 0.924025 1.156093
Head 7.110406 -1.753885 0.098888
LeftShoulder -18.896988 -8.641481 0.851956
LeftArm -43.610213 13.749181 -95.927739
LeftForeArm 2.587469 -0.000000 6.123615
LeftHand -6.463760 0.000000 -25.142410
LeftHandThumb1 -26.253704 0.000000 33.147579
RightShoulder -19.135166 -24.387408 8.966408
RightArm -6.395495 -17.418279 83.931658
RightForeArm -30.245201 -0.000000 12.534770
RightHand -2.366790 -0.000000 29.439796
RightHandThumb1 -24.326973 -0.000000 -32.862282
LeftUpLeg 1.750368 9.127779 2.823439
LeftLeg -5.917246 -0.000000 0.000000
LeftFoot -20.569685 27.830814 -11.150407
LeftToeBase 27.943472 -0.000000 -0.000000
RightUpLeg -0.385170 -12.149379 -0.179519
RightLeg -2.090863 -0.000000 0.000000
RightFoot -20.468026 -21.156945 15.656476
RightToeBase 25.858561 -0.000000 -0.000000
118
root 18.812605 35.454355 -21.071298 -174.056873 -1.756727 -178.379188
Spine -12.867797 0.849523 1.155295
Head 7.056586 -1.739377 0.103125
LeftShoulder -18.796507 -8.402252 0.780720
LeftArm -43.567847 14.173720 -96.475065
LeftForeArm 1.932421 -0.000000 6.043956
LeftHand -6.528054 -0.000000 -25.428295
LeftHandThumb1 -26.253704 0.000000 33.147579
RightShoulder -19.060055 -24.547458 9.064247
RightArm -6.369338 -18.374032 84.187452
RightForeArm -29.372711 -0.000000 12.451594
RightHand -2.505161 -0.000000 30.090308
RightHandThumb1 -24.326973 -0.000000 -32.862282
LeftUpLeg 1.787255 9.107741 2.835835
LeftLeg -5.905176 -0.000000 0.000000
LeftFoot -20.556476 27.785528 -11.140382
LeftToeBase 27.942830 -0.000000 -0.000000
RightUpLeg -0.322464 -12.182256 -0.188012
RightLeg -2.085967 -0.000000 0.000000
RightFoot -20.467555 -21.161493 15.743451
RightToeBase 25.712541 -0.000000 -0.000000
119
root 18.813004 35.454777 -21.072759 -174.114064 -1.848133 -178.384506
Spine -12.776323 0.742232 1.161994
Head 7.028442 -1.697049 0.087208
LeftShoulder -18.648363 -8.140769 0.676572
LeftArm -43.531180 14.671027 -97.047700
LeftForeArm 1.266015 0.000000 6.031838
LeftHand -6.510255 0.000000 -25.752621
LeftHandThumb1 -26.253704 0.000000 33.147579
RightShoulder -18.913433 -24.747537 9.113958
RightArm -6.227941 -18.736903 84.405542
RightForeArm -29.065290 -0.000000 12.224407
RightHand -2.253540 -0.000000 30.710724
RightHandThumb1 -24.326973 -0.000000 -32.862282
LeftUpLeg 1.828217 9.077343 2.846242
LeftLeg -5.899067 -0.000000 0.000000
LeftFoot -20.538103 27.731171 -11.117376
LeftToeBase 27.991862 -0.000000 -0.000000
RightUpLeg -0.250139 -12.234720 -0.198857
RightLeg -2.084815 -0.000000 0.000000
RightFoot -20.488538 -21.190019 15.789934
RightToeBase 25.657574 -0.000000 -0.000000
120
root 18.812453 35.455186 -21.073236 -174.181679 -1.924143 -178.396644
Spine -12.660071 0.654424 1.149891
Head 6.991404 -1.664425 0.100340
LeftShoulder -18.468614 -7.922689 0.562740
LeftArm -43.510387 15.134300 -97.557869
LeftForeArm 0.607453 -0.000000 6.058586
LeftHand -6.491541 -0.000000 -26.237770
LeftHandThumb1 -26.253704 0.000000 33.147579
RightShoulder -18.808455 -24.974332 9.205513
RightArm -5.987818 -19.370245 84.566179
RightForeArm -28.632577 -0.000000 12.009867
RightHand -1.965895 -0.000000 31.478592
RightHandThumb1 -24.326973 -0.000000 -32.862282
LeftUpLeg 1.876637 9.073891 2.849092
LeftLeg -5.886761 -0.000000 0.000000
LeftFoot -20.519307 27.662516 -11.113587
LeftToeBase 27.927382 -0.000000 -0.000000
RightUpLeg -0.173390 -12.280288 -0.221058
RightLeg -2.074270 -0.000000 0.000000
RightFoot -20.497500 -21.207796 15.854333
RightToeBase 25.506081 -0.000000 -0.000000
